<svg width="22" height="18" viewBox="0 0 22 18" fill="none" xmlns="http://www.w3.org/2000/svg">
<path fill-rule="evenodd" clip-rule="evenodd" d="M2 3.16873H5.28125L7.39375 -2.28882e-05H13.7312L15.8438 3.16873H19.125H21.125V5.16873V15.4446V17.4446H19.125H2H0V15.4446V5.16873V3.16873H2ZM6.94535 4.27813L8.46412 1.99998H12.6609L14.1796 4.27813L14.7734 5.16873H15.8438H19.125V15.4446H2V5.16873H5.28125H6.35162L6.94535 4.27813ZM8 9.72498C8 8.22 9.22002 6.99998 10.725 6.99998C12.23 6.99998 13.45 8.22 13.45 9.72498C13.45 11.23 12.23 12.45 10.725 12.45C9.22002 12.45 8 11.23 8 9.72498ZM10.725 4.99998C8.11545 4.99998 6 7.11543 6 9.72498C6 12.3345 8.11545 14.45 10.725 14.45C13.3345 14.45 15.45 12.3345 15.45 9.72498C15.45 7.11543 13.3345 4.99998 10.725 4.99998Z" fill="#FFFFFF"/>
</svg>
